<mxfile host="app.diagrams.net" agent="Mozilla/5.0 (Windows NT 10.0; Win64; x64) AppleWebKit/537.36 (KHTML, like Gecko) Chrome/139.0.0.0 Safari/537.36" version="28.1.1">
  <diagram name="Page-1" id="vznSPJU230vXI68lJie_">
    <mxGraphModel dx="1684" dy="924" grid="1" gridSize="10" guides="1" tooltips="1" connect="1" arrows="1" fold="1" page="1" pageScale="1" pageWidth="1100" pageHeight="850" math="0" shadow="0">
      <root>
        <mxCell id="0" />
        <mxCell id="1" parent="0" />
        <mxCell id="luhkJVd8gAF-xBso7u4r-1" value="Metro Events System" style="swimlane;whiteSpace=wrap;html=1;" vertex="1" parent="1">
          <mxGeometry x="300" y="50" width="500" height="720" as="geometry" />
        </mxCell>
        <mxCell id="luhkJVd8gAF-xBso7u4r-5" value="Receive/send notifications" style="ellipse;whiteSpace=wrap;html=1;" vertex="1" parent="luhkJVd8gAF-xBso7u4r-1">
          <mxGeometry x="120" y="70" width="100" height="40" as="geometry" />
        </mxCell>
        <mxCell id="luhkJVd8gAF-xBso7u4r-8" value="Process request to become an organizer" style="ellipse;whiteSpace=wrap;html=1;" vertex="1" parent="luhkJVd8gAF-xBso7u4r-1">
          <mxGeometry x="90" y="140" width="160" height="60" as="geometry" />
        </mxCell>
        <mxCell id="luhkJVd8gAF-xBso7u4r-28" style="edgeStyle=none;rounded=0;orthogonalLoop=1;jettySize=auto;html=1;endArrow=none;endFill=0;" edge="1" parent="luhkJVd8gAF-xBso7u4r-1" source="luhkJVd8gAF-xBso7u4r-10">
          <mxGeometry relative="1" as="geometry">
            <mxPoint x="560" y="260" as="targetPoint" />
          </mxGeometry>
        </mxCell>
        <mxCell id="luhkJVd8gAF-xBso7u4r-10" value="Register account" style="ellipse;whiteSpace=wrap;html=1;" vertex="1" parent="luhkJVd8gAF-xBso7u4r-1">
          <mxGeometry x="90" y="220" width="160" height="60" as="geometry" />
        </mxCell>
        <mxCell id="luhkJVd8gAF-xBso7u4r-12" value="Request/review intent to&lt;div&gt;join event&lt;/div&gt;" style="ellipse;whiteSpace=wrap;html=1;" vertex="1" parent="luhkJVd8gAF-xBso7u4r-1">
          <mxGeometry x="90" y="310" width="160" height="60" as="geometry" />
        </mxCell>
        <mxCell id="luhkJVd8gAF-xBso7u4r-17" value="Create event" style="ellipse;whiteSpace=wrap;html=1;" vertex="1" parent="luhkJVd8gAF-xBso7u4r-1">
          <mxGeometry x="90" y="470" width="160" height="60" as="geometry" />
        </mxCell>
        <mxCell id="luhkJVd8gAF-xBso7u4r-20" value="Manage events" style="ellipse;whiteSpace=wrap;html=1;" vertex="1" parent="luhkJVd8gAF-xBso7u4r-1">
          <mxGeometry x="90" y="390" width="160" height="60" as="geometry" />
        </mxCell>
        <mxCell id="luhkJVd8gAF-xBso7u4r-24" style="edgeStyle=none;rounded=0;orthogonalLoop=1;jettySize=auto;html=1;entryX=1;entryY=0.5;entryDx=0;entryDy=0;dashed=1;" edge="1" parent="luhkJVd8gAF-xBso7u4r-1" source="luhkJVd8gAF-xBso7u4r-23" target="luhkJVd8gAF-xBso7u4r-20">
          <mxGeometry relative="1" as="geometry" />
        </mxCell>
        <mxCell id="luhkJVd8gAF-xBso7u4r-25" value="&amp;lt;&amp;lt;extends&amp;gt;&amp;gt;" style="edgeLabel;html=1;align=center;verticalAlign=middle;resizable=0;points=[];" vertex="1" connectable="0" parent="luhkJVd8gAF-xBso7u4r-24">
          <mxGeometry x="0.1361" y="1" relative="1" as="geometry">
            <mxPoint x="18" y="-1" as="offset" />
          </mxGeometry>
        </mxCell>
        <mxCell id="luhkJVd8gAF-xBso7u4r-33" style="edgeStyle=none;rounded=0;orthogonalLoop=1;jettySize=auto;html=1;dashed=1;" edge="1" parent="luhkJVd8gAF-xBso7u4r-1" source="luhkJVd8gAF-xBso7u4r-23" target="luhkJVd8gAF-xBso7u4r-32">
          <mxGeometry relative="1" as="geometry" />
        </mxCell>
        <mxCell id="luhkJVd8gAF-xBso7u4r-34" value="&amp;lt;&amp;lt;includes&amp;gt;&amp;gt;" style="edgeLabel;html=1;align=center;verticalAlign=middle;resizable=0;points=[];" vertex="1" connectable="0" parent="luhkJVd8gAF-xBso7u4r-33">
          <mxGeometry x="-0.331" y="-1" relative="1" as="geometry">
            <mxPoint as="offset" />
          </mxGeometry>
        </mxCell>
        <mxCell id="luhkJVd8gAF-xBso7u4r-23" value="Cancel event" style="ellipse;whiteSpace=wrap;html=1;" vertex="1" parent="luhkJVd8gAF-xBso7u4r-1">
          <mxGeometry x="370" y="400" width="120" height="40" as="geometry" />
        </mxCell>
        <mxCell id="luhkJVd8gAF-xBso7u4r-26" value="Make user an administrator" style="ellipse;whiteSpace=wrap;html=1;" vertex="1" parent="luhkJVd8gAF-xBso7u4r-1">
          <mxGeometry x="330" y="110" width="120" height="40" as="geometry" />
        </mxCell>
        <mxCell id="luhkJVd8gAF-xBso7u4r-32" value="Send notifications to participants" style="ellipse;whiteSpace=wrap;html=1;" vertex="1" parent="luhkJVd8gAF-xBso7u4r-1">
          <mxGeometry x="365" y="490" width="130" height="60" as="geometry" />
        </mxCell>
        <mxCell id="luhkJVd8gAF-xBso7u4r-2" value="User" style="shape=umlActor;verticalLabelPosition=bottom;verticalAlign=top;html=1;outlineConnect=0;" vertex="1" parent="1">
          <mxGeometry x="180" y="240" width="30" height="60" as="geometry" />
        </mxCell>
        <mxCell id="luhkJVd8gAF-xBso7u4r-3" value="Organizer" style="shape=umlActor;verticalLabelPosition=bottom;verticalAlign=top;html=1;outlineConnect=0;" vertex="1" parent="1">
          <mxGeometry x="180" y="450" width="30" height="60" as="geometry" />
        </mxCell>
        <mxCell id="luhkJVd8gAF-xBso7u4r-4" value="Administrator" style="shape=umlActor;verticalLabelPosition=bottom;verticalAlign=top;html=1;outlineConnect=0;" vertex="1" parent="1">
          <mxGeometry x="860" y="290" width="30" height="60" as="geometry" />
        </mxCell>
        <mxCell id="luhkJVd8gAF-xBso7u4r-7" style="edgeStyle=none;rounded=0;orthogonalLoop=1;jettySize=auto;html=1;entryX=1;entryY=0.3333333333333333;entryDx=0;entryDy=0;entryPerimeter=0;endArrow=none;endFill=0;" edge="1" parent="1" source="luhkJVd8gAF-xBso7u4r-5" target="luhkJVd8gAF-xBso7u4r-2">
          <mxGeometry relative="1" as="geometry" />
        </mxCell>
        <mxCell id="luhkJVd8gAF-xBso7u4r-9" style="edgeStyle=none;rounded=0;orthogonalLoop=1;jettySize=auto;html=1;entryX=1;entryY=0.3333333333333333;entryDx=0;entryDy=0;entryPerimeter=0;endArrow=none;endFill=0;" edge="1" parent="1" source="luhkJVd8gAF-xBso7u4r-8" target="luhkJVd8gAF-xBso7u4r-2">
          <mxGeometry relative="1" as="geometry" />
        </mxCell>
        <mxCell id="luhkJVd8gAF-xBso7u4r-11" style="edgeStyle=none;rounded=0;orthogonalLoop=1;jettySize=auto;html=1;entryX=1;entryY=0.3333333333333333;entryDx=0;entryDy=0;entryPerimeter=0;endArrow=none;endFill=0;" edge="1" parent="1" source="luhkJVd8gAF-xBso7u4r-10" target="luhkJVd8gAF-xBso7u4r-2">
          <mxGeometry relative="1" as="geometry" />
        </mxCell>
        <mxCell id="luhkJVd8gAF-xBso7u4r-13" style="edgeStyle=none;rounded=0;orthogonalLoop=1;jettySize=auto;html=1;entryX=1;entryY=0.3333333333333333;entryDx=0;entryDy=0;entryPerimeter=0;endArrow=none;endFill=0;exitX=0;exitY=0.5;exitDx=0;exitDy=0;" edge="1" parent="1" source="luhkJVd8gAF-xBso7u4r-12" target="luhkJVd8gAF-xBso7u4r-2">
          <mxGeometry relative="1" as="geometry" />
        </mxCell>
        <mxCell id="luhkJVd8gAF-xBso7u4r-14" style="edgeStyle=none;rounded=0;orthogonalLoop=1;jettySize=auto;html=1;entryX=1;entryY=0.3333333333333333;entryDx=0;entryDy=0;entryPerimeter=0;endArrow=none;endFill=0;exitX=0;exitY=0.5;exitDx=0;exitDy=0;" edge="1" parent="1" source="luhkJVd8gAF-xBso7u4r-12" target="luhkJVd8gAF-xBso7u4r-3">
          <mxGeometry relative="1" as="geometry" />
        </mxCell>
        <mxCell id="luhkJVd8gAF-xBso7u4r-15" style="edgeStyle=none;rounded=0;orthogonalLoop=1;jettySize=auto;html=1;entryX=1;entryY=0.3333333333333333;entryDx=0;entryDy=0;entryPerimeter=0;endArrow=none;endFill=0;" edge="1" parent="1" source="luhkJVd8gAF-xBso7u4r-5" target="luhkJVd8gAF-xBso7u4r-3">
          <mxGeometry relative="1" as="geometry" />
        </mxCell>
        <mxCell id="luhkJVd8gAF-xBso7u4r-18" style="edgeStyle=none;rounded=0;orthogonalLoop=1;jettySize=auto;html=1;entryX=1;entryY=0.3333333333333333;entryDx=0;entryDy=0;entryPerimeter=0;endArrow=none;endFill=0;exitX=-0.003;exitY=0.429;exitDx=0;exitDy=0;exitPerimeter=0;" edge="1" parent="1" source="luhkJVd8gAF-xBso7u4r-17" target="luhkJVd8gAF-xBso7u4r-3">
          <mxGeometry relative="1" as="geometry" />
        </mxCell>
        <mxCell id="luhkJVd8gAF-xBso7u4r-21" style="edgeStyle=none;rounded=0;orthogonalLoop=1;jettySize=auto;html=1;entryX=1;entryY=0.3333333333333333;entryDx=0;entryDy=0;entryPerimeter=0;endArrow=none;endFill=0;" edge="1" parent="1" source="luhkJVd8gAF-xBso7u4r-20" target="luhkJVd8gAF-xBso7u4r-3">
          <mxGeometry relative="1" as="geometry" />
        </mxCell>
        <mxCell id="luhkJVd8gAF-xBso7u4r-22" style="edgeStyle=none;rounded=0;orthogonalLoop=1;jettySize=auto;html=1;entryX=0;entryY=0.3333333333333333;entryDx=0;entryDy=0;entryPerimeter=0;endArrow=none;endFill=0;exitX=1;exitY=0;exitDx=0;exitDy=0;" edge="1" parent="1" source="luhkJVd8gAF-xBso7u4r-20" target="luhkJVd8gAF-xBso7u4r-4">
          <mxGeometry relative="1" as="geometry" />
        </mxCell>
        <mxCell id="luhkJVd8gAF-xBso7u4r-27" style="edgeStyle=none;rounded=0;orthogonalLoop=1;jettySize=auto;html=1;entryX=0;entryY=0.3333333333333333;entryDx=0;entryDy=0;entryPerimeter=0;endArrow=none;endFill=0;" edge="1" parent="1" source="luhkJVd8gAF-xBso7u4r-26" target="luhkJVd8gAF-xBso7u4r-4">
          <mxGeometry relative="1" as="geometry" />
        </mxCell>
        <mxCell id="luhkJVd8gAF-xBso7u4r-29" style="edgeStyle=none;rounded=0;orthogonalLoop=1;jettySize=auto;html=1;entryX=0;entryY=0.3333333333333333;entryDx=0;entryDy=0;entryPerimeter=0;endArrow=none;endFill=0;" edge="1" parent="1" source="luhkJVd8gAF-xBso7u4r-8" target="luhkJVd8gAF-xBso7u4r-4">
          <mxGeometry relative="1" as="geometry" />
        </mxCell>
        <mxCell id="luhkJVd8gAF-xBso7u4r-30" style="edgeStyle=none;rounded=0;orthogonalLoop=1;jettySize=auto;html=1;entryX=0;entryY=0.3333333333333333;entryDx=0;entryDy=0;entryPerimeter=0;endArrow=none;endFill=0;" edge="1" parent="1" source="luhkJVd8gAF-xBso7u4r-5" target="luhkJVd8gAF-xBso7u4r-4">
          <mxGeometry relative="1" as="geometry" />
        </mxCell>
        <mxCell id="luhkJVd8gAF-xBso7u4r-31" style="edgeStyle=none;rounded=0;orthogonalLoop=1;jettySize=auto;html=1;entryX=0;entryY=0.3333333333333333;entryDx=0;entryDy=0;entryPerimeter=0;endArrow=none;endFill=0;" edge="1" parent="1" source="luhkJVd8gAF-xBso7u4r-12" target="luhkJVd8gAF-xBso7u4r-4">
          <mxGeometry relative="1" as="geometry">
            <mxPoint x="860" y="310" as="targetPoint" />
          </mxGeometry>
        </mxCell>
        <mxCell id="luhkJVd8gAF-xBso7u4r-35" value="Pool" style="swimlane;childLayout=stackLayout;resizeParent=1;resizeParentMax=0;startSize=20;html=1;" vertex="1" parent="1">
          <mxGeometry x="240" y="900" width="570" height="710" as="geometry" />
        </mxCell>
        <mxCell id="luhkJVd8gAF-xBso7u4r-36" value="Lane 1" style="swimlane;startSize=20;html=1;" vertex="1" parent="luhkJVd8gAF-xBso7u4r-35">
          <mxGeometry y="20" width="280" height="690" as="geometry" />
        </mxCell>
        <mxCell id="luhkJVd8gAF-xBso7u4r-39" value="" style="ellipse;whiteSpace=wrap;html=1;aspect=fixed;" vertex="1" parent="luhkJVd8gAF-xBso7u4r-36">
          <mxGeometry x="125" y="40" width="30" height="30" as="geometry" />
        </mxCell>
        <mxCell id="luhkJVd8gAF-xBso7u4r-37" value="Lane 2" style="swimlane;startSize=20;html=1;" vertex="1" parent="luhkJVd8gAF-xBso7u4r-35">
          <mxGeometry x="280" y="20" width="290" height="690" as="geometry" />
        </mxCell>
      </root>
    </mxGraphModel>
  </diagram>
</mxfile>
